<?xml version="1.0" encoding="UTF-8" standalone="no"?>
<!-- Created with Inkscape (http://www.inkscape.org/) -->

<svg
   xmlns:dc="http://purl.org/dc/elements/1.1/"
   xmlns:cc="http://creativecommons.org/ns#"
   xmlns:rdf="http://www.w3.org/1999/02/22-rdf-syntax-ns#"
   xmlns:svg="http://www.w3.org/2000/svg"
   xmlns="http://www.w3.org/2000/svg"
   xmlns:xlink="http://www.w3.org/1999/xlink"
   xmlns:sodipodi="http://sodipodi.sourceforge.net/DTD/sodipodi-0.dtd"
   xmlns:inkscape="http://www.inkscape.org/namespaces/inkscape"
   width="92"
   height="92"
   id="svg2"
   version="1.1"
   inkscape:version="0.48.4 r9939"
   sodipodi:docname="logo.svg"
   inkscape:export-filename="/home/ahwayakchih/www/webextension-extract-json/src/icon-48px.png"
   inkscape:export-xdpi="46.959999"
   inkscape:export-ydpi="46.959999">
  <defs
     id="defs4">
    <linearGradient
       inkscape:collect="always"
       id="linearGradient3821">
      <stop
         style="stop-color:#000000;stop-opacity:1;"
         offset="0"
         id="stop3823" />
      <stop
         style="stop-color:#000000;stop-opacity:0;"
         offset="1"
         id="stop3825" />
    </linearGradient>
    <linearGradient
       gradientTransform="matrix(0.99884,0,0,0.998699,689.00774,-388.84375)"
       gradientUnits="userSpaceOnUse"
       xlink:href="#linearGradient8385"
       id="linearGradient3005"
       y2="525.90759"
       x2="-553.2699"
       y1="413.04492"
       x1="-666.11664" />
    <linearGradient
       gradientTransform="matrix(0.99884,0,0,0.998699,689.00774,-388.84375)"
       gradientUnits="userSpaceOnUse"
       xlink:href="#linearGradient8385"
       id="linearGradient3002"
       y2="413.0452"
       x2="-666.11639"
       y1="525.90778"
       x1="-553.26971" />
    <linearGradient
       id="linearGradient8385">
      <stop
         offset="0"
         style="stop-color:#000000;stop-opacity:1"
         id="stop8387" />
      <stop
         offset="1"
         style="stop-color:#ffffff;stop-opacity:1"
         id="stop8389" />
    </linearGradient>
    <linearGradient
       inkscape:collect="always"
       xlink:href="#linearGradient3821"
       id="linearGradient3827"
       x1="24.946518"
       y1="88.394249"
       x2="65.727768"
       y2="88.394249"
       gradientUnits="userSpaceOnUse" />
    <linearGradient
       inkscape:collect="always"
       xlink:href="#linearGradient3821"
       id="linearGradient3829"
       x1="33.713725"
       y1="-45.337142"
       x2="82.97712"
       y2="-45.337142"
       gradientUnits="userSpaceOnUse" />
    <linearGradient
       inkscape:collect="always"
       xlink:href="#linearGradient3821"
       id="linearGradient3831"
       x1="7.5171424"
       y1="15.77857"
       x2="83.157142"
       y2="15.77857"
       gradientUnits="userSpaceOnUse" />
  </defs>
  <sodipodi:namedview
     id="base"
     pagecolor="#ffffff"
     bordercolor="#666666"
     borderopacity="1.0"
     inkscape:pageopacity="0.0"
     inkscape:pageshadow="2"
     inkscape:zoom="5.6"
     inkscape:cx="115.71348"
     inkscape:cy="41.519942"
     inkscape:document-units="px"
     inkscape:current-layer="layer1"
     showgrid="false"
     inkscape:object-nodes="true"
     inkscape:window-width="1920"
     inkscape:window-height="1013"
     inkscape:window-x="0"
     inkscape:window-y="27"
     inkscape:window-maximized="1" />
  <metadata
     id="metadata7">
    <rdf:RDF>
      <cc:Work
         rdf:about="">
        <dc:format>image/svg+xml</dc:format>
        <dc:type
           rdf:resource="http://purl.org/dc/dcmitype/StillImage" />
        <dc:title />
      </cc:Work>
    </rdf:RDF>
  </metadata>
  <g
     inkscape:label="Layer 1"
     inkscape:groupmode="layer"
     id="layer1">
    <path
       inkscape:connector-curvature="0"
       id="path3022"
       style="font-size:40px;font-style:normal;font-variant:normal;font-weight:normal;font-stretch:normal;line-height:125%;letter-spacing:0px;word-spacing:0px;fill:#000000;fill-opacity:1;stroke:none;font-family:Ubuntu Mono;-inkscape-font-specification:Ubuntu Mono"
       d="m 10.437142,6.2185698 0,-2.8 11.72,0 0,16.8000002 c -1.6e-5,1.17334 -0.13335,2.280005 -0.4,3.32 -0.240016,1.040003 -0.680015,1.946669 -1.32,2.72 -0.613347,0.746668 -1.453347,1.346667 -2.52,1.8 -1.040011,0.426666 -2.36001,0.639999 -3.96,0.64 -1.600007,-1e-6 -2.946672,-0.226667 -4.0399996,-0.68 -1.0933368,-0.453333 -1.893336,-0.893332 -2.4,-1.32 l 1.32,-2.68 c 0.5066627,0.373337 1.1733286,0.773337 1.9999996,1.2 0.853327,0.426669 1.839993,0.640002 2.96,0.64 1.706657,2e-6 2.973322,-0.453331 3.8,-1.36 0.853321,-0.906662 1.279987,-2.439994 1.28,-4.6 l 0,-13.6800002 -8.44,0" />
    <path
       inkscape:connector-curvature="0"
       id="path3024"
       style="font-size:40px;font-style:normal;font-variant:normal;font-weight:normal;font-stretch:normal;line-height:125%;letter-spacing:0px;word-spacing:0px;fill:#000000;fill-opacity:1;stroke:none;font-family:Ubuntu Mono;-inkscape-font-specification:Ubuntu Mono"
       d="m 34.717142,25.85857 c 1.679989,2e-6 2.959988,-0.319998 3.84,-0.96 0.879986,-0.639996 1.319986,-1.599995 1.32,-2.88 -1.4e-5,-0.773327 -0.160014,-1.426659 -0.48,-1.96 -0.320013,-0.559992 -0.74668,-1.039991 -1.28,-1.44 -0.533345,-0.426657 -1.133345,-0.786657 -1.8,-1.08 -0.666677,-0.319989 -1.346676,-0.613322 -2.04,-0.88 -0.800008,-0.319988 -1.57334,-0.679988 -2.32,-1.08 -0.720005,-0.399987 -1.373338,-0.866653 -1.96,-1.4 -0.560004,-0.533319 -1.013337,-1.159985 -1.36,-1.88 -0.320003,-0.719984 -0.480002,-1.573316 -0.48,-2.5600002 -2e-6,-2.1599794 0.679997,-3.8399777 2.04,-5.04 1.359994,-1.226642 3.253326,-1.8399747 5.68,-1.84 0.666656,2.53e-5 1.319989,0.053359 1.96,0.16 0.666654,0.080025 1.279987,0.1866916 1.84,0.32 0.559986,0.133358 1.053318,0.2933579 1.48,0.48 0.453318,0.1866908 0.813317,0.3733573 1.08,0.56 l -1.04,2.76 c -0.533348,-0.3199786 -1.266681,-0.6399783 -2.2,-0.96 -0.933346,-0.3199777 -1.973345,-0.4799775 -3.12,-0.48 -1.200009,2.25e-5 -2.240008,0.3066888 -3.12,0.92 -0.880006,0.5866876 -1.320006,1.4800201 -1.32,2.68 -6e-6,0.6933515 0.119994,1.2800172 0.36,1.7600002 0.26666,0.480016 0.613327,0.906683 1.04,1.28 0.453326,0.346682 0.973325,0.666682 1.56,0.96 0.586657,0.293348 1.226657,0.586681 1.92,0.88 1.013322,0.42668 1.933321,0.853346 2.76,1.28 0.853319,0.426679 1.573318,0.933345 2.16,1.52 0.613317,0.586677 1.079983,1.28001 1.4,2.08 0.346649,0.800008 0.519983,1.77334 0.52,2.92 -1.7e-5,2.160004 -0.73335,3.826669 -2.2,5 -1.440014,1.146667 -3.520012,1.719999 -6.24,1.72 -0.880008,-1e-6 -1.706674,-0.06667 -2.48,-0.2 -0.773339,-0.106667 -1.466672,-0.253334 -2.08,-0.44 -0.58667,-0.186667 -1.10667,-0.373333 -1.56,-0.56 -0.453336,-0.186666 -0.800002,-0.359999 -1.04,-0.52 l 1,-2.72 c 0.53333,0.293337 1.319996,0.640003 2.36,1.04 1.039994,0.373336 2.306659,0.560002 3.8,0.56" />
    <path
       inkscape:connector-curvature="0"
       id="path3026"
       style="font-size:40px;font-style:normal;font-variant:normal;font-weight:normal;font-stretch:normal;line-height:125%;letter-spacing:0px;word-spacing:0px;fill:#000000;fill-opacity:1;stroke:none;font-family:Ubuntu Mono;-inkscape-font-specification:Ubuntu Mono"
       d="m 46.517142,15.77857 c -10e-7,-2.213319 0.213332,-4.133317 0.64,-5.76 0.426665,-1.6266471 1.026664,-2.9599791 1.8,-4.0000002 0.773329,-1.0666434 1.693328,-1.8533093 2.76,-2.36 1.093326,-0.5333083 2.306658,-0.7999747 3.64,-0.8 1.306656,2.53e-5 2.506655,0.2666917 3.6,0.8 1.093319,0.5066907 2.026651,1.2933566 2.8,2.36 0.773317,1.0400211 1.373316,2.3733531 1.8,4.0000002 0.453315,1.626683 0.679982,3.546681 0.68,5.76 -1.8e-5,2.213343 -0.226685,4.133341 -0.68,5.76 -0.426684,1.626671 -1.026683,2.973337 -1.8,4.04 -0.773349,1.066668 -1.706681,1.853334 -2.8,2.36 -1.093345,0.506666 -2.293344,0.759999 -3.6,0.76 -1.333342,-1e-6 -2.546674,-0.253334 -3.64,-0.76 -1.066672,-0.506666 -1.986671,-1.293332 -2.76,-2.36 -0.773336,-1.066663 -1.373335,-2.413329 -1.8,-4.04 -0.426668,-1.626659 -0.640001,-3.546657 -0.64,-5.76 m 3.36,0 c -4e-6,3.253342 0.439995,5.746673 1.32,7.48 0.879994,1.733336 2.239992,2.600002 4.08,2.6 1.866655,2e-6 3.266654,-0.866664 4.2,-2.6 0.933319,-1.733327 1.399985,-4.226658 1.4,-7.48 -1.5e-5,-3.253318 -0.466681,-5.746649 -1.4,-7.4800002 -0.933346,-1.7333117 -2.333345,-2.5999775 -4.2,-2.6 -1.840008,2.25e-5 -3.200006,0.8666883 -4.08,2.6 -0.880005,1.7333512 -1.320004,4.2266822 -1.32,7.4800002" />
    <path
       inkscape:connector-curvature="0"
       id="path3028"
       style="font-size:40px;font-style:normal;font-variant:normal;font-weight:normal;font-stretch:normal;line-height:125%;letter-spacing:0px;word-spacing:0px;fill:#000000;fill-opacity:1;stroke:none;font-family:Ubuntu Mono;-inkscape-font-specification:Ubuntu Mono"
       d="m 79.797142,28.17857 c -0.90668,-2.213331 -1.760012,-4.213329 -2.56,-6 -0.800011,-1.813326 -1.573343,-3.506657 -2.32,-5.08 -0.720008,-1.573321 -1.440008,-3.053319 -2.16,-4.44 -0.720006,-1.413317 -1.453339,-2.8266485 -2.2,-4.2400002 l 0,19.7600002 -3,0 0,-24.7600002 3.36,0 c 1.093327,2.0000228 2.039993,3.7466877 2.84,5.24 0.826658,1.4933512 1.573324,2.9466832 2.24,4.3600002 0.693322,1.38668 1.359988,2.826679 2,4.32 0.639987,1.466676 1.359986,3.173341 2.16,5.12 l 0,-19.0400002 3,0 0,24.7600002 -3.36,0" />
    <path
       inkscape:connector-curvature="0"
       id="path3031"
       style="font-size:65.3441925px;font-style:normal;font-weight:normal;line-height:125%;letter-spacing:0px;word-spacing:0px;fill:#000000;fill-opacity:1;stroke:none;font-family:Sans"
       d="M 61.545565,66.768697 45.337142,82.97712 29.12872,66.768697 l 8.710432,0 0,-33.054972 14.995981,0 0,33.054972 8.710432,0" />
    <path
       style="font-size:40px;font-style:normal;font-weight:normal;line-height:125%;letter-spacing:0px;word-spacing:0px;fill:#000000;fill-opacity:1;stroke:none;font-family:Sans"
       d="m 24.9375,87 0,2.78125 40.78125,0 0,-2.78125 z"
       id="path3034"
       inkscape:connector-curvature="0"
       sodipodi:nodetypes="ccccc" />
  </g>
</svg>
