<svg xmlns="http://www.w3.org/2000/svg" version="1.1" viewBox="0 0 92 92" width="92" height="92">
	<g>
		<path d="m10.44,6.219,0-2.8,11.72,0,0,16.8c-0.000016,1.173-0.1334,2.28-0.4,3.32-0.24,1.04-0.68,1.947-1.32,2.72-0.6133,0.7467-1.453,1.347-2.52,1.8-1.04,0.4267-2.36,0.64-3.96,0.64-1.6-0.000001-2.947-0.2267-4.04-0.68s-1.893-0.8933-2.4-1.32l1.32-2.68c0.5067,0.3733,1.173,0.7733,2,1.2,0.8533,0.4267,1.84,0.64,2.96,0.64,1.707,0.000002,2.973-0.4533,3.8-1.36,0.8533-0.9067,1.28-2.44,1.28-4.6v-13.68h-8.44" style="fill:#000000;"/>
		<path d="m34.72,25.86c1.68,0.000002,2.96-0.32,3.84-0.96s1.32-1.6,1.32-2.88c-0.000014-0.7733-0.16-1.427-0.48-1.96-0.32-0.56-0.7467-1.04-1.28-1.44-0.5333-0.4267-1.133-0.7867-1.8-1.08-0.6667-0.32-1.347-0.6133-2.04-0.88-0.8-0.32-1.573-0.68-2.32-1.08-0.72-0.4-1.373-0.8667-1.96-1.4-0.56-0.5333-1.013-1.16-1.36-1.88-0.32-0.72-0.48-1.573-0.48-2.56-0.000002-2.16,0.68-3.84,2.04-5.04,1.36-1.227,3.253-1.84,5.68-1.84,0.6667,0.0000253,1.32,0.05336,1.96,0.16,0.6667,0.08002,1.28,0.1867,1.84,0.32,0.56,0.1334,1.053,0.2934,1.48,0.48,0.4533,0.1867,0.8133,0.3734,1.08,0.56l-1.04,2.76c-0.5333-0.32-1.267-0.64-2.2-0.96-0.9333-0.32-1.973-0.48-3.12-0.48-1.2,0.0000225-2.24,0.3067-3.12,0.92-0.88,0.5867-1.32,1.48-1.32,2.68-0.000006,0.6934,0.12,1.28,0.36,1.76,0.2667,0.48,0.6133,0.9067,1.04,1.28,0.4533,0.3467,0.9733,0.6667,1.56,0.96s1.227,0.5867,1.92,0.88c1.013,0.4267,1.933,0.8533,2.76,1.28,0.8533,0.4267,1.573,0.9333,2.16,1.52,0.6133,0.5867,1.08,1.28,1.4,2.08,0.3466,0.8,0.52,1.773,0.52,2.92-0.000017,2.16-0.7334,3.827-2.2,5-1.44,1.147-3.52,1.72-6.24,1.72-0.88-0.000001-1.707-0.06667-2.48-0.2-0.7733-0.1067-1.467-0.2533-2.08-0.44-0.5867-0.1867-1.107-0.3733-1.56-0.56-0.4533-0.1867-0.8-0.36-1.04-0.52l1-2.72c0.5333,0.2933,1.32,0.64,2.36,1.04,1.04,0.3733,2.307,0.56,3.8,0.56" style="fill:#000000;"/>
		<path d="m46.52,15.78c-0.000001-2.213,0.2133-4.133,0.64-5.76s1.027-2.96,1.8-4c0.7733-1.067,1.693-1.853,2.76-2.36,1.093-0.5333,2.307-0.8,3.64-0.8,1.307,0.0000253,2.507,0.2667,3.6,0.8,1.093,0.5067,2.027,1.293,2.8,2.36,0.7733,1.04,1.373,2.373,1.8,4,0.4533,1.627,0.68,3.547,0.68,5.76-0.000018,2.213-0.2267,4.133-0.68,5.76-0.4267,1.627-1.027,2.973-1.8,4.04-0.7733,1.067-1.707,1.853-2.8,2.36-1.093,0.5067-2.293,0.76-3.6,0.76-1.333-0.000001-2.547-0.2533-3.64-0.76-1.067-0.5067-1.987-1.293-2.76-2.36-0.7733-1.067-1.373-2.413-1.8-4.04-0.4267-1.627-0.64-3.547-0.64-5.76m3.36,0c-0.000004,3.253,0.44,5.747,1.32,7.48s2.24,2.6,4.08,2.6c1.867,0.000002,3.267-0.8667,4.2-2.6,0.9333-1.733,1.4-4.227,1.4-7.48-0.000015-3.253-0.4667-5.747-1.4-7.48s-2.333-2.6-4.2-2.6c-1.84,0.0000225-3.2,0.8667-4.08,2.6s-1.32,4.227-1.32,7.48" style="fill:#000000;"/>
		<path d="m79.8,28.18c-0.9067-2.213-1.76-4.213-2.56-6-0.8-1.813-1.573-3.507-2.32-5.08-0.72-1.573-1.44-3.053-2.16-4.44-0.72-1.413-1.453-2.827-2.2-4.24v19.76h-3v-24.76h3.36c1.093,2,2.04,3.747,2.84,5.24,0.8267,1.493,1.573,2.947,2.24,4.36,0.6933,1.387,1.36,2.827,2,4.32,0.64,1.467,1.36,3.173,2.16,5.12v-19.04h3v24.76h-3.36" style="fill:#000000;"/>
		<path d="M61.55,66.77,45.34,82.98,29.13,66.77h8.71v-33.05h15v33.05h8.71" style="fill:#000000;"/>
		<path style="fill:#000000;" d="m24.94,87,0,2.781,40.78,0,0-2.781z"/>
	</g>
</svg>
