<svg xmlns="http://www.w3.org/2000/svg" version="1.1" viewBox="0 0 92 92">
	<g>
		<path d="m29,93-4.191,0c-5.09,0-8.77-1.38-11.04-4.14-2.22-2.72-3.34-7.8-3.34-15.22v-5.093c0-6.62-0.865-11.22-2.598-13.8-1.733-2.62-4.527-3.93-8.382-3.93v-8.647c3.855,0.000033,6.649-1.291,8.382-3.873,1.733-2.617,2.6-7.233,2.6-13.85v-5.146c0-7.38,1.12-12.44,3.34-15.16,2.27-2.759,5.95-4.138,11.04-4.138h4.19v6.95h-1.592c-3.289,0.000068-5.588,0.7074-6.897,2.122-1.273,1.415-1.91,4.792-1.91,10.13v3.395c-0.000038,7.321-0.8489,12.71-2.546,16.18-1.698,3.466-4.58,6.03-8.647,7.693,4.067,1.698,6.95,4.28,8.647,7.746,1.698,3.466,2.546,8.86,2.546,16.18v3.395c-0.000038,5.341,0.6366,8.718,1.91,10.13,1.309,1.415,3.607,2.122,6.897,2.122h1.59v6.95" style="fill:#000000;"/>
		<path d="m40,59,0-39,13,0,0,39,10,0l-16.47,16-16.53-16h10" style="fill:#000000;"/>
		<path d="m92.55,50.82c-3.82,0.000024-6.614,1.309-8.382,3.926-1.733,2.582-2.6,7.18-2.6,13.79v5.093c-0.000035,7.427-1.114,12.5-3.342,15.23-2.23,2.76-5.89,4.14-10.99,4.14h-4.24v-6.95h1.645c3.289-0.00001,5.57-0.7074,6.844-2.122,1.309-1.415,1.963-4.792,1.963-10.13v-3.395c-0.000027-7.321,0.8488-12.71,2.546-16.18,1.698-3.466,4.58-6.048,8.647-7.746-4.067-1.662-6.95-4.226-8.647-7.693-1.698-3.466-2.547-8.86-2.546-16.18v-3.395c-0.000027-5.34-0.6543-8.718-1.963-10.13-1.273-1.415-3.554-2.122-6.844-2.122l-1.64,0.002v-6.95h4.24c5.093,0.00007486,8.754,1.379,10.98,4.138,2.228,2.723,3.342,7.781,3.342,15.17v5.146c-0.000035,5.977,0.7781,10.43,2.334,13.37,1.556,2.9,4.439,4.35,8.647,4.35v8.647" style="fill:#000000;"/>
	</g>
</svg>
